<svg class="census" role="img" xmlns="http://www.w3.org/2000/svg" viewBox="0 0 720 312" width="100%" aria-labelledby="census-networks-title census-networks-desc"><style>
svg.census{--census-accent:var(--color-interactive,#0e6f89);--census-gray:#8a8478;--census-ink:var(--color-text-body,#15171a);--census-muted:var(--color-text-muted,#55606b);--census-grid:var(--color-border,#e2ded7);--census-axis:var(--color-border-strong,#cfcabf);font-family:inherit;font-size:12px}
.dark svg.census{--census-gray:#8a9099}
svg.census .census-grid{stroke:var(--census-grid);stroke-width:1}
svg.census .census-axis{stroke:var(--census-axis);stroke-width:1}
svg.census .census-line{fill:none;stroke:var(--census-accent);stroke-width:2;stroke-linejoin:round;stroke-linecap:round}
svg.census .census-line[data-bucket="hidden"]{stroke:var(--census-gray)}
svg.census .census-bar{fill:var(--census-accent)}
svg.census .census-bar[data-bucket="hidden"]{fill:var(--census-gray)}
svg.census .census-point{fill:transparent}
svg.census text{fill:var(--census-muted)}
svg.census .census-label,svg.census .census-panel-title{fill:var(--census-ink)}
svg.census .census-panel-title{font-weight:600}
</style><title id="census-networks-title">Ten largest networks by share of PageSpeed-serving origins</title><desc id="census-networks-desc">Horizontal bars of network share, latest crawl, desktop.</desc><line class="census-axis" x1="250" y1="16" x2="250" y2="296"/><path class="census-bar" d="M250 21.0 H569.3 a4 4 0 0 1 4 4 v10 a4 4 0 0 1 -4 4 H250 Z"><title>CLOUDFLARENET - Cloudflare,…: 14.5%</title></path><text class="census-label" x="242" y="35.0" text-anchor="end">CLOUDFLARENET - Cloudflare,…</text><path class="census-bar" d="M250 49.0 H455.6 a4 4 0 0 1 4 4 v10 a4 4 0 0 1 -4 4 H250 Z"><title>XSERVER - Xserver Inc., JP: 9.4%</title></path><text class="census-label" x="242" y="63.0" text-anchor="end">XSERVER - Xserver Inc., JP</text><path class="census-bar" d="M250 77.0 H451.2 a4 4 0 0 1 4 4 v10 a4 4 0 0 1 -4 4 H250 Z"><title>Ukraine-AS - Hosting Ukrain…: 9.2%</title></path><text class="census-label" x="242" y="91.0" text-anchor="end">Ukraine-AS - Hosting Ukrain…</text><path class="census-bar" d="M250 105.0 H419.9 a4 4 0 0 1 4 4 v10 a4 4 0 0 1 -4 4 H250 Z"><title>HETZNER-AS - Hetzner Online…: 7.8%</title></path><text class="census-label" x="242" y="119.0" text-anchor="end">HETZNER-AS - Hetzner Online…</text><path class="census-bar" d="M250 133.0 H382.0 a4 4 0 0 1 4 4 v10 a4 4 0 0 1 -4 4 H250 Z"><title>NETARTGROUP - Nazwa.pl Sp.z…: 6.1%</title></path><text class="census-label" x="242" y="147.0" text-anchor="end">NETARTGROUP - Nazwa.pl Sp.z…</text><path class="census-bar" d="M250 161.0 H379.8 a4 4 0 0 1 4 4 v10 a4 4 0 0 1 -4 4 H250 Z"><title>GMO-I-R1 - GMO Internet, In…: 6.0%</title></path><text class="census-label" x="242" y="175.0" text-anchor="end">GMO-I-R1 - GMO Internet, In…</text><path class="census-bar" d="M250 189.0 H357.5 a4 4 0 0 1 4 4 v10 a4 4 0 0 1 -4 4 H250 Z"><title>AMAZON-02 - Amazon.com, Inc…: 5.0%</title></path><text class="census-label" x="242" y="203.0" text-anchor="end">AMAZON-02 - Amazon.com, Inc…</text><path class="census-bar" d="M250 217.0 H328.5 a4 4 0 0 1 4 4 v10 a4 4 0 0 1 -4 4 H250 Z"><title>GMO-I-R2 - GMO Internet, In…: 3.7%</title></path><text class="census-label" x="242" y="231.0" text-anchor="end">GMO-I-R2 - GMO Internet, In…</text><path class="census-bar" d="M250 245.0 H310.7 a4 4 0 0 1 4 4 v10 a4 4 0 0 1 -4 4 H250 Z"><title>AMAZON-AES - Amazon.com, In…: 2.9%</title></path><text class="census-label" x="242" y="259.0" text-anchor="end">AMAZON-AES - Amazon.com, In…</text><path class="census-bar" d="M250 273.0 H304.0 a4 4 0 0 1 4 4 v10 a4 4 0 0 1 -4 4 H250 Z"><title>IDCF - IDC Frontier Inc., JP: 2.6%</title></path><text class="census-label" x="242" y="287.0" text-anchor="end">IDCF - IDC Frontier Inc., JP</text></svg>
